:FULLY-SPECIFIED
:FORCE-ALL-JOINTS-BE-3DOF
:DEGREES
136
root 7.69008 16.6804 -26.3289 -9.15119 11.9966 2.50492
lfemur -6.62169 14.2603 -19.1596
ltibia 32.5548 0 0
lfoot -16.4995 -6.99451 0
ltoes 19.8918 0 0
rfemur -87.3391 -29.7286 38.7574
rtibia 76.8779 0 0
rfoot 7.35514 24.5449 0
rtoes -37.465 0 0
lowerback 16.1223 -3.42983 -6.72924
upperback 5.16859 -5.47249 -0.32547
thorax -2.91797 -2.72377 4.32431
lowerneck -12.2747 -1.47778 -0.084654
upperneck 0.785727 -2.07831 2.90971
head 2.43346 -0.934819 0.827731
lclavicle 4.39027e-14 1.52096e-14 0
lhumerus -37.4836 -22.3535 91.3147
lradius 48.7837 0 0
lwrist 11.0084 0 0
lhand 13.0451 7.44905 0
lfingers 7.12502 0 0
lthumb 37.9849 33.0373 0
rclavicle 4.39027e-14 1.52096e-14 0
rhumerus -46.4437 -14.6746 -59.4876
rradius 78.5853 0 0
rwrist -9.06522 0 0
rhand -7.83039 -31.0446 0
rfingers 7.12502 0 0
rthumb 17.9738 -206.633 0
137
root 7.65409 16.6594 -26.3179 -8.86017 12.6521 2.51305
lfemur -7.26472 14.7318 -19.0505
ltibia 33.1103 0 0
lfoot -16.8041 -6.49331 0
ltoes 18.1601 0 0
rfemur -88.1747 -30.2248 39.0317
rtibia 81.5741 0 0
rfoot 8.89466 24.8995 0
rtoes -37.3006 0 0
lowerback 16.0569 -3.639 -6.93653
upperback 5.09432 -5.77829 -0.438209
thorax -2.91588 -2.87275 4.36609
lowerneck -12.2435 -1.54278 -0.210149
upperneck 0.680397 -2.15228 3.11242
head 2.39909 -0.966852 0.911811
lclavicle 5.09939e-14 1.39669e-14 0
lhumerus -37.065 -23.2646 91.2711
lradius 48.4692 0 0
lwrist 10.7064 0 0
lhand 13.9522 7.71193 0
lfingers 7.12502 0 0
lthumb 38.8413 33.0644 0
rclavicle 5.09939e-14 1.39669e-14 0
rhumerus -47.2981 -15.2456 -60.4097
rradius 79.9584 0 0
rwrist -8.83751 0 0
rhand -10.8481 -32.9283 0
rfingers 7.12502 0 0
rthumb 15.0715 -230.018 0
138
root 7.6181 16.6385 -26.307 -8.54415 13.3269 2.51397
lfemur -7.94763 15.2025 -18.9323
ltibia 33.6823 0 0
lfoot -17.1032 -5.97452 0
ltoes 16.4205 0 0
rfemur -88.9024 -30.6712 39.2253
rtibia 86.2911 0 0
rfoot 10.4716 25.2077 0
rtoes -37.0002 0 0
lowerback 15.9635 -3.84538 -7.1327
upperback 5.00894 -6.07865 -0.55054
thorax -2.91112 -3.01899 4.4005
lowerneck -12.2077 -1.6172 -0.33512
upperneck 0.573963 -2.23885 3.3158
head 2.36373 -1.00518 0.995447
lclavicle 5.79271e-14 1.26887e-14 0
lhumerus -36.6657 -24.1836 91.252
lradius 48.1568 0 0
lwrist 10.4115 0 0
lhand 14.8795 7.99655 0
lfingers 7.12502 0 0
lthumb 39.7162 33.103 0
rclavicle 5.79271e-14 1.26887e-14 0
rhumerus -48.1541 -15.8013 -61.3649
rradius 81.3153 0 0
rwrist -8.59004 0 0
rhand -13.9271 -34.8229 0
rfingers 7.12502 0 0
rthumb 12.1102 -253.536 0
139
root 7.58211 16.6175 -26.296 -8.2073 14.0153 2.5087
lfemur -8.66094 15.6735 -18.8077
ltibia 34.2635 0 0
lfoot -17.3901 -5.44143 0
ltoes 14.6961 0 0
rfemur -89.5065 -31.0609 39.3338
rtibia 90.9522 0 0
rfoot 12.0568 25.4536 0
rtoes -36.5628 0 0
lowerback 15.8431 -4.04736 -7.31512
upperback 4.91382 -6.37108 -0.661824
thorax -2.90348 -3.16132 4.42619
lowerneck -12.1675 -1.70055 -0.45863
upperneck 0.468517 -2.33751 3.5179
head 2.32814 -1.04958 1.07784
lclavicle 6.45785e-14 1.1395e-14 0
lhumerus -36.2925 -25.104 91.2628
lradius 47.8521 0 0
lwrist 10.1284 0 0
lhand 15.82 8.30327 0
lfingers 7.12502 0 0
lthumb 40.6027 33.1543 0
rclavicle 6.45785e-14 1.1395e-14 0
rhumerus -49 -16.337 -62.3415
rradius 82.6449 0 0
rwrist -8.32844 0 0
rhand -17.0266 -36.709 0
rfingers 7.12502 0 0
rthumb 9.12929 -276.93 0
140
root 7.54612 16.5966 -26.285 -7.85382 14.7114 2.49829
lfemur -9.39516 16.1461 -18.6797
ltibia 34.8463 0 0
lfoot -17.6581 -4.89729 0
ltoes 13.01 0 0
rfemur -89.9716 -31.3869 39.3529
rtibia 95.481 0 0
rfoot 13.6209 25.6215 0
rtoes -35.9872 0 0
lowerback 15.6967 -4.24332 -7.48112
upperback 4.81031 -6.65307 -0.771423
thorax -2.89274 -3.29853 4.44178
lowerneck -12.1233 -1.79233 -0.579738
upperneck 0.366153 -2.44774 3.71675
head 2.29306 -1.09983 1.15819
lclavicle 7.08243e-14 1.01062e-14 0
lhumerus -35.9519 -26.0195 91.3089
lradius 47.5603 0 0
lwrist 9.86123 0 0
lhand 16.7668 8.63245 0
lfingers 7.12502 0 0
lthumb 41.4942 33.219 0
rclavicle 7.08243e-14 1.01062e-14 0
rhumerus -49.8246 -16.8485 -63.3277
rradius 83.9361 0 0
rwrist -8.05837 0 0
rhand -20.1059 -38.5674 0
rfingers 7.12502 0 0
rthumb 6.16781 -299.946 0
141
root 7.51013 16.5756 -26.2741 -7.4879 15.4092 2.48376
lfemur -10.1408 16.6213 -18.5511
ltibia 35.4235 0 0
lfoot -17.9005 -4.34537 0
ltoes 11.3854 0 0
rfemur -90.2821 -31.6424 39.2784
rtibia 99.8006 0 0
rfoot 15.1347 25.6954 0
rtoes -35.2723 0 0
lowerback 15.5253 -4.43167 -7.62804
upperback 4.69975 -6.92212 -0.878699
thorax -2.87869 -3.42945 4.44591
lowerneck -12.0753 -1.89204 -0.697506
upperneck 0.268962 -2.56903 3.91037
head 2.25924 -1.15572 1.2357
lclavicle 7.65409e-14 8.84223e-15 0
lhumerus -35.6505 -26.9237 91.3955
lradius 47.2869 0 0
lwrist 9.61457 0 0
lhand 17.7129 8.98444 0
lfingers 7.12502 0 0
lthumb 42.3838 33.2981 0
rclavicle 7.65409e-14 8.84223e-15 0
rhumerus -50.6166 -17.3312 -64.3119
rradius 85.1779 0 0
rwrist -7.78547 0 0
rhand -23.1243 -40.3785 0
rfingers 7.12502 0 0
rthumb 3.26496 -322.327 0
142
root 7.47414 16.5546 -26.2631 -7.11371 16.1031 2.46617
lfemur -10.8884 17.1004 -18.4249
ltibia 35.9876 0 0
lfoot -18.1107 -3.78894 0
ltoes 9.84536 0 0
rfemur -90.4224 -31.8202 39.1057
rtibia 103.835 0 0
rfoot 16.5689 25.6595 0
rtoes -34.4171 0 0
lowerback 15.33 -4.61079 -7.75325
upperback 4.5835 -7.17574 -0.983014
thorax -2.86112 -3.55287 4.43721
lowerneck -12.0236 -1.9992 -0.810995
upperneck 0.179038 -2.70084 4.09682
head 2.22744 -1.21703 1.30957
lclavicle 8.16044e-14 7.62335e-15 0
lhumerus -35.395 -27.81 91.528
lradius 47.0371 0 0
lwrist 9.39281 0 0
lhand 18.6513 9.35959 0
lfingers 7.12502 0 0
lthumb 43.2647 33.3926 0
rclavicle 8.16044e-14 7.62335e-15 0
rhumerus -51.3645 -17.7806 -65.2822
rradius 86.3593 0 0
rwrist -7.51538 0 0
rhand -26.041 -42.1232 0
rfingers 7.12502 0 0
rthumb 0.459913 -343.817 0
143
root 7.43814 16.5337 -26.2521 -6.73546 16.7871 2.44653
lfemur -11.6285 17.5846 -18.304
ltibia 36.5313 0 0
lfoot -18.2819 -3.23126 0
ltoes 8.41301 0 0
rfemur -90.3769 -31.9135 38.8307
rtibia 107.506 0 0
rfoot 17.8943 25.4978 0
rtoes -33.4205 0 0
lowerback 15.1118 -4.77908 -7.85407
upperback 4.46291 -7.41142 -1.08373
thorax -2.83982 -3.66762 4.41431
lowerneck -11.9686 -2.1133 -0.919267
upperneck 0.0984724 -2.84266 4.27412
head 2.19841 -1.28353 1.379
lclavicle 8.58911e-14 6.46972e-15 0
lhumerus -35.1919 -28.6722 91.7118
lradius 46.8163 0 0
lwrist 9.20034 0 0
lhand 19.5749 9.75826 0
lfingers 7.12502 0 0
lthumb 44.1303 33.5034 0
rclavicle 8.58911e-14 6.46972e-15 0
rhumerus -52.0569 -18.1922 -66.227
rradius 87.4693 0 0
rwrist -7.25376 0 0
rhand -28.8152 -43.782 0
rfingers 7.12502 0 0
rthumb -2.20815 -364.162 0
144
root 7.40215 16.5127 -26.2412 -6.35733 17.4555 2.4259
lfemur -12.3515 18.0749 -18.1911
ltibia 37.0472 0 0
lfoot -18.4075 -2.67561 0
ltoes 7.11148 0 0
rfemur -90.1302 -31.9152 38.449
rtibia 110.739 0 0
rfoot 19.0817 25.1945 0
rtoes -32.2813 0 0
lowerback 14.8716 -4.93493 -7.92786
upperback 4.33934 -7.62666 -1.18021
thorax -2.81457 -3.7725 4.37586
lowerneck -11.9105 -2.23386 -1.02138
upperneck 0.0293588 -2.99398 4.44031
head 2.1729 -1.35501 1.44321
lclavicle 8.92773e-14 5.40146e-15 0
lhumerus -35.0479 -29.5038 91.9523
lradius 46.6299 0 0
lwrist 9.04158 0 0
lhand 20.4768 10.1808 0
lfingers 7.12502 0 0
lthumb 44.9738 33.6314 0
rclavicle 8.92773e-14 5.40146e-15 0
rhumerus -52.6825 -18.5617 -67.1346
rradius 88.4968 0 0
rwrist -7.00625 0 0
rhand -31.4063 -45.3355 0
rfingers 7.12502 0 0
rthumb -4.70004 -383.104 0
